<svg data-v-423bf9ae="" xmlns="http://www.w3.org/2000/svg" viewBox="0 0 351 90" class="iconLeft"><!----><!----><!----><g data-v-423bf9ae="" id="ebdb9776-f65c-45bf-997c-204bb82a671b" fill="black" transform="matrix(5.7526364568010235,0,0,5.7526364568010235,85.2153282938011,-3.1783314588254044)"><path d="M14.15 3.75L14.63 3.75L11.28 13.55L10.81 13.55L7.62 4.41L4.44 13.55L3.95 13.55L0.60 3.75L1.11 3.75L4.20 12.87L7.39 3.75L7.85 3.75L11.03 12.88L14.15 3.75ZM22.78 9.86L22.78 9.98L16.41 9.98L16.41 9.98Q16.42 10.91 16.84 11.63L16.84 11.63L16.84 11.63Q17.26 12.36 18.00 12.77L18.00 12.77L18.00 12.77Q18.73 13.17 19.64 13.17L19.64 13.17L19.64 13.17Q20.38 13.17 21.01 12.90L21.01 12.90L21.01 12.90Q21.64 12.63 22.05 12.10L22.05 12.10L22.34 12.40L22.34 12.40Q21.85 12.98 21.15 13.29L21.15 13.29L21.15 13.29Q20.45 13.59 19.64 13.59L19.64 13.59L19.64 13.59Q18.58 13.59 17.75 13.13L17.75 13.13L17.75 13.13Q16.91 12.66 16.44 11.82L16.44 11.82L16.44 11.82Q15.96 10.98 15.96 9.91L15.96 9.91L15.96 9.91Q15.96 8.85 16.40 8.01L16.40 8.01L16.40 8.01Q16.84 7.17 17.63 6.70L17.63 6.70L17.63 6.70Q18.41 6.23 19.38 6.23L19.38 6.23L19.38 6.23Q20.33 6.23 21.11 6.69L21.11 6.69L21.11 6.69Q21.88 7.15 22.33 7.98L22.33 7.98L22.33 7.98Q22.78 8.81 22.78 9.86L22.78 9.86ZM19.38 6.65L19.38 6.65Q18.56 6.65 17.91 7.03L17.91 7.03L17.91 7.03Q17.25 7.41 16.86 8.08L16.86 8.08L16.86 8.08Q16.46 8.76 16.42 9.60L16.42 9.60L22.34 9.60L22.34 9.60Q22.29 8.76 21.89 8.08L21.89 8.08L21.89 8.08Q21.49 7.41 20.84 7.03L20.84 7.03L20.84 7.03Q20.19 6.65 19.38 6.65L19.38 6.65ZM25.51 8.04L25.51 8.04Q25.83 7.17 26.55 6.70L26.55 6.70L26.55 6.70Q27.27 6.23 28.34 6.23L28.34 6.23L28.34 6.69L28.21 6.69L28.21 6.69Q26.95 6.69 26.24 7.49L26.24 7.49L26.24 7.49Q25.52 8.29 25.52 9.69L25.52 9.69L25.52 13.55L25.06 13.55L25.06 6.29L25.51 6.29L25.51 8.04ZM36.23 13.55L32.98 9.48L30.95 11.34L30.95 13.55L30.49 13.55L30.49 3.16L30.95 3.16L30.95 10.78L35.88 6.29L36.50 6.29L33.35 9.20L36.82 13.55L36.23 13.55ZM38.82 13.55L38.82 3.75L39.30 3.75L39.30 13.55L38.82 13.55ZM45.84 12.75L46.07 13.09L46.07 13.09Q45.82 13.33 45.43 13.46L45.43 13.46L45.43 13.46Q45.04 13.59 44.62 13.59L44.62 13.59L44.62 13.59Q43.74 13.59 43.25 13.10L43.25 13.10L43.25 13.10Q42.77 12.60 42.77 11.73L42.77 11.73L42.77 6.69L41.40 6.69L41.40 6.29L42.77 6.29L42.77 4.69L43.23 4.69L43.23 6.29L45.63 6.29L45.63 6.69L43.23 6.69L43.23 11.66L43.23 11.66Q43.23 12.40 43.60 12.80L43.60 12.80L43.60 12.80Q43.96 13.19 44.66 13.19L44.66 13.19L44.66 13.19Q45.36 13.19 45.84 12.75L45.84 12.75Z"></path></g><!----><g data-v-423bf9ae="" id="00c3853c-f86e-4403-bde1-6388b5bd14a7" transform="matrix(3.0289770878094155,0,0,3.0289770878094155,-13.798630554439967,-3.319121066783964)" stroke="none" fill="black"><path d="M14.057 12.171a.75.75 0 1 0-1.068 1.012.742.742 0 0 0 .966-.091L6.868 22.86l-2.203 7.996 6.917-4.576L27.335 4.563l-4.717-3.42-1.521 2.097a1.574 1.574 0 0 0-.596-.908 1.634 1.634 0 0 0-2.28.363c-3.03 4.184-1.349 5.297-4.164 9.476zm-3.468 13.073L7.03 27.598l1.133-4.107 2.426 1.753zm4.19-13.289c2.184-3.225 1.976-4.099 3.843-6.961.31.211.664.287 1.013.27l-4.856 6.691z"></path></g><!----></svg>