<svg data-v-423bf9ae="" xmlns="http://www.w3.org/2000/svg" viewBox="0 0 308 90" class="iconLeft"><!----><!----><!----><g data-v-423bf9ae="" id="7b59b9b1-fafc-4d74-9a71-5b85e3d8740b" fill="black" transform="matrix(5.61797736755893,0,0,5.61797736755893,87.9365676757447,15)"><path d="M12.33 0.73L13.24 0.73L10.37 10.50L9.21 10.50L6.71 1.82L4.13 10.50L2.93 10.50L0.13 0.73L1.15 0.73L3.57 9.44L6.15 0.73L7.32 0.73L9.81 9.41L12.33 0.73ZM19.43 7.18L14.50 7.18L14.50 7.18Q14.49 7.95 14.74 8.55L14.74 8.55L14.74 8.55Q14.84 8.81 15.02 9.06L15.02 9.06L15.02 9.06Q15.19 9.31 15.44 9.50L15.44 9.50L15.44 9.50Q15.69 9.69 16.05 9.81L16.05 9.81L16.05 9.81Q16.41 9.93 16.88 9.93L16.88 9.93L16.88 9.93Q17.29 9.93 17.65 9.82L17.65 9.82L17.65 9.82Q18.02 9.72 18.30 9.59L18.30 9.59L18.30 9.59Q18.63 9.44 18.93 9.24L18.93 9.24L18.94 10.14L18.94 10.14Q18.94 10.14 18.79 10.23L18.79 10.23L18.79 10.23Q18.63 10.32 18.38 10.42L18.38 10.42L18.38 10.42Q18.12 10.51 17.76 10.60L17.76 10.60L17.76 10.60Q17.40 10.68 17.01 10.68L17.01 10.68L17.01 10.68Q15.88 10.68 15.19 10.32L15.19 10.32L15.19 10.32Q14.50 9.97 14.13 9.41L14.13 9.41L14.13 9.41Q13.75 8.85 13.63 8.15L13.63 8.15L13.63 8.15Q13.51 7.46 13.51 6.78L13.51 6.78L13.51 6.78Q13.51 6.13 13.71 5.49L13.71 5.49L13.71 5.49Q13.90 4.84 14.29 4.33L14.29 4.33L14.29 4.33Q14.67 3.82 15.25 3.51L15.25 3.51L15.25 3.51Q15.82 3.19 16.59 3.19L16.59 3.19L16.59 3.19Q17.44 3.19 18.00 3.54L18.00 3.54L18.00 3.54Q18.55 3.89 18.87 4.42L18.87 4.42L18.87 4.42Q19.18 4.96 19.31 5.59L19.31 5.59L19.31 5.59Q19.43 6.22 19.43 6.78L19.43 6.78L19.43 7.18ZM14.49 6.43L18.45 6.43L18.45 6.43Q18.45 5.96 18.35 5.52L18.35 5.52L18.35 5.52Q18.24 5.07 18.02 4.72L18.02 4.72L18.02 4.72Q17.79 4.37 17.44 4.16L17.44 4.16L17.44 4.16Q17.08 3.95 16.59 3.95L16.59 3.95L16.59 3.95Q16.10 3.95 15.72 4.17L15.72 4.17L15.72 4.17Q15.33 4.40 15.06 4.75L15.06 4.75L15.06 4.75Q14.78 5.10 14.64 5.54L14.64 5.54L14.64 5.54Q14.49 5.99 14.49 6.43L14.49 6.43ZM24.35 3.29L24.35 4.20L24.35 4.20Q24.21 4.19 24.08 4.16L24.08 4.16L24.08 4.16Q23.97 4.14 23.86 4.13L23.86 4.13L23.86 4.13Q23.76 4.12 23.72 4.12L23.72 4.12L23.72 4.12Q23.17 4.12 22.83 4.40L22.83 4.40L22.83 4.40Q22.48 4.68 22.28 5.10L22.28 5.10L22.28 5.10Q22.08 5.53 22.00 6.03L22.00 6.03L22.00 6.03Q21.92 6.54 21.92 6.99L21.92 6.99L21.92 10.50L21.04 10.50L21.04 3.36L21.73 3.36L21.88 4.75L21.88 4.75Q22.04 4.40 22.23 4.06L22.23 4.06L22.23 4.06Q22.41 3.72 22.69 3.51L22.69 3.51L22.69 3.51Q22.97 3.29 23.37 3.21L23.37 3.21L23.37 3.21Q23.77 3.14 24.35 3.29L24.35 3.29ZM30.98 3.36L27.97 6.48L31.43 10.50L30.20 10.50L27.17 6.90L26.63 6.90L26.63 10.50L25.75 10.50L25.75 0L26.63 0L26.63 6.06L27.17 6.06L29.85 3.36L30.98 3.36ZM32.80 10.50L32.80 10.50L32.80 0.73L33.77 0.73L33.77 10.50L32.80 10.50ZM39.13 10.50L39.13 10.50L39.13 10.50Q39.03 10.56 38.89 10.60L38.89 10.60L38.89 10.60Q38.78 10.63 38.60 10.65L38.60 10.65L38.60 10.65Q38.42 10.68 38.16 10.68L38.16 10.68L38.16 10.68Q37.62 10.68 37.30 10.51L37.30 10.51L37.30 10.51Q36.97 10.35 36.81 10.08L36.81 10.08L36.81 10.08Q36.64 9.81 36.59 9.48L36.59 9.48L36.59 9.48Q36.54 9.14 36.54 8.79L36.54 8.79L36.54 4.10L35.50 4.10L35.50 3.35L36.54 3.35L36.54 1.64L37.41 1.32L37.42 3.35L39.05 3.35L39.05 4.10L37.42 4.10L37.42 8.79L37.42 8.79Q37.42 8.89 37.44 9.08L37.44 9.08L37.44 9.08Q37.46 9.27 37.56 9.45L37.56 9.45L37.56 9.45Q37.66 9.63 37.84 9.77L37.84 9.77L37.84 9.77Q38.02 9.91 38.36 9.91L38.36 9.91L38.39 9.91L38.39 9.91Q38.67 9.91 38.86 9.84L38.86 9.84L38.86 9.84Q39.06 9.77 39.06 9.76L39.06 9.76L39.13 10.50Z"></path></g><!----><g data-v-423bf9ae="" id="b6e9007b-b3f0-4b22-b2b3-3fcd66aa8cec" transform="matrix(3.0289770878094155,0,0,3.0289770878094155,-13.798630554439967,-3.319121066783964)" stroke="none" fill="black"><path d="M14.057 12.171a.75.75 0 1 0-1.068 1.012.742.742 0 0 0 .966-.091L6.868 22.86l-2.203 7.996 6.917-4.576L27.335 4.563l-4.717-3.42-1.521 2.097a1.574 1.574 0 0 0-.596-.908 1.634 1.634 0 0 0-2.28.363c-3.03 4.184-1.349 5.297-4.164 9.476zm-3.468 13.073L7.03 27.598l1.133-4.107 2.426 1.753zm4.19-13.289c2.184-3.225 1.976-4.099 3.843-6.961.31.211.664.287 1.013.27l-4.856 6.691z"></path></g><!----></svg>