<svg data-v-fde0c5aa="" xmlns="http://www.w3.org/2000/svg" viewBox="0 0 300 300" class="icon"><!----><defs data-v-fde0c5aa=""><linearGradient data-v-fde0c5aa="" gradientTransform="rotate(25)" id="5aadba24-b1af-487c-97bd-68b82fe0144c" x1="0%" y1="0%" x2="100%" y2="0%"><stop data-v-fde0c5aa="" offset="0%" stop-color="#01648B" stop-opacity="1"></stop><stop data-v-fde0c5aa="" offset="100%" stop-color="#5BD0A4" stop-opacity="1"></stop></linearGradient></defs><rect data-v-fde0c5aa="" fill="url(#5aadba24-b1af-487c-97bd-68b82fe0144c)" x="0" y="0" width="300px" height="300px" class="logo-background-square"></rect><!----><defs data-v-fde0c5aa=""><!----></defs><g data-v-fde0c5aa="" id="fd7954f5-1593-4ac6-9530-158442ac5e09" fill="#ffffff" stroke="none" transform="matrix(7.404166214645238,0,0,7.404166214645238,31.533347626839344,31.537037084586956)"><path d="M14.057 12.171a.75.75 0 1 0-1.068 1.012.742.742 0 0 0 .966-.091L6.868 22.86l-2.203 7.996 6.917-4.576L27.335 4.563l-4.717-3.42-1.521 2.097a1.574 1.574 0 0 0-.596-.908 1.634 1.634 0 0 0-2.28.363c-3.03 4.184-1.349 5.297-4.164 9.476zm-3.468 13.073L7.03 27.598l1.133-4.107 2.426 1.753zm4.19-13.289c2.184-3.225 1.976-4.099 3.843-6.961.31.211.664.287 1.013.27l-4.856 6.691z"></path></g><!----></svg>