<svg data-v-423bf9ae="" xmlns="http://www.w3.org/2000/svg" viewBox="0 0 45.77793668961117 60" class="icon"><!----><!----><!----><!----><g data-v-423bf9ae="" id="5e9db181-6169-45a9-a491-22cf8b10e8c6" transform="matrix(2.01931805853961,0,0,2.01931805853961,-9.420118543149592,-2.3080803182754863)" stroke="none" fill="white"><path d="M14.057 12.171a.75.75 0 1 0-1.068 1.012.742.742 0 0 0 .966-.091L6.868 22.86l-2.203 7.996 6.917-4.576L27.335 4.563l-4.717-3.42-1.521 2.097a1.574 1.574 0 0 0-.596-.908 1.634 1.634 0 0 0-2.28.363c-3.03 4.184-1.349 5.297-4.164 9.476zm-3.468 13.073L7.03 27.598l1.133-4.107 2.426 1.753zm4.19-13.289c2.184-3.225 1.976-4.099 3.843-6.961.31.211.664.287 1.013.27l-4.856 6.691z"></path></g><!----></svg>